<svg viewBox="-0.5 -0.5 100 100" xmlns="http://www.w3.org/2000/svg" viewBox="0 0 100 100" height="100" width="100"><path d="m44.574 24.176 37.125 -12.12a2.992 2.992 0 0 1 3.772 1.915l1.336 4.089a0.803 0.803 0 0 1 -0.513 1.011L48.241 31.504" fill="none" stroke="" stroke-linecap="round" stroke-linejoin="round" stroke-width="1"></path><path d="m53.318 21.321 -5.322 1.737 7.083 6.211 5.321 -1.738 -7.082 -6.21z" fill="none" stroke="" stroke-linecap="round" stroke-linejoin="round" stroke-width="1"></path><path d="m64.744 17.591 -5.322 1.737 7.071 6.211 5.331 -1.74 -7.079 -6.208z" fill="none" stroke="" stroke-linecap="round" stroke-linejoin="round" stroke-width="1"></path><path d="m76.169 13.861 -5.332 1.74 7.079 6.207 5.329 -1.743 -7.077 -6.204z" fill="none" stroke="" stroke-linecap="round" stroke-linejoin="round" stroke-width="1"></path><path d="M36.227 44.193v-4.67H89.1V63.726a3.034 3.034 0 0 1 -3.034 3.034H59.08" fill="none" stroke="" stroke-linecap="round" stroke-linejoin="round" stroke-width="1"></path><path d="m48.244 31.512 4.006 8.011H89.1V32.314a0.802 0.802 0 0 0 -0.801 -0.802Z" fill="none" stroke="" stroke-linecap="round" stroke-linejoin="round" stroke-width="1"></path><path d="M52.249 39.523H36.227V26.705a3.205 3.205 0 0 1 3.205 -3.205h3.981a1.337 1.337 0 0 1 1.195 0.739Z" fill="none" stroke="" stroke-linecap="round" stroke-linejoin="round" stroke-width="1"></path><path d="m41.834 47.534 41.657 0" fill="none" stroke="" stroke-linecap="round" stroke-linejoin="round" stroke-width="1"></path><path d="m61.862 47.534 0 16.022" fill="none" stroke="" stroke-linecap="round" stroke-linejoin="round" stroke-width="1"></path><path d="m57.056 31.512 5.608 0 -4.807 8.011 -5.607 0 4.806 -8.011z" fill="none" stroke="" stroke-linecap="round" stroke-linejoin="round" stroke-width="1"></path><path d="m69.072 31.512 5.607 0 -4.806 8.011 -5.607 0 4.806 -8.011z" fill="none" stroke="" stroke-linecap="round" stroke-linejoin="round" stroke-width="1"></path><path d="m81.089 31.512 5.607 0 -4.806 8.011 -5.607 0 4.806 -8.011z" fill="none" stroke="" stroke-linecap="round" stroke-linejoin="round" stroke-width="1"></path><path d="M39.833 35.694a0.225 0.225 0 1 1 -0.225 0.223 0.224 0.224 0 0 1 0.225 -0.223m0 -0.99a1.215 1.215 0 1 0 1.214 1.213 1.215 1.215 0 0 0 -1.214 -1.213Z" fill="" stroke-width="1"></path><path d="M39.833 26.882a0.224 0.224 0 1 1 -0.226 0.224 0.227 0.227 0 0 1 0.226 -0.224m0 -0.99a1.214 1.214 0 1 0 1.214 1.214 1.216 1.216 0 0 0 -1.214 -1.214Z" fill="" stroke-width="1"></path><path d="M46.241 35.694a0.224 0.224 0 1 1 -0.224 0.223 0.224 0.224 0 0 1 0.224 -0.223m0 -0.99a1.214 1.214 0 1 0 1.214 1.213 1.215 1.215 0 0 0 -1.214 -1.213Z" fill="" stroke-width="1"></path><path d="M24.147 47.447 23.76 43.35a6.063 6.063 0 0 0 -9.326 -4.437l-3.923 2.544a1.339 1.339 0 1 0 1.457 2.248l3.924 -2.543a3.384 3.384 0 0 1 5.202 2.463l0.359 3.821" fill="none" stroke="" stroke-linecap="round" stroke-linejoin="round" stroke-width="1"></path><path d="m23.77 43.437 -2.628 0.668" fill="none" stroke="" stroke-linecap="round" stroke-linejoin="round" stroke-width="1"></path><path d="M21.787 39.493 19.899 41.381" fill="none" stroke="" stroke-linecap="round" stroke-linejoin="round" stroke-width="1"></path><path d="m17.2 37.959 0.665 2.662" fill="none" stroke="" stroke-linecap="round" stroke-linejoin="round" stroke-width="1"></path><path d="M13.869 51.467 18.315 82.881a2.427 2.427 0 0 0 2.404 2.087h7.258" fill="none" stroke="" stroke-linecap="round" stroke-linejoin="round" stroke-width="1"></path><path d="M26.782 71.529c-2.209 3.297 -4.214 6.617 -0.853 13.438 -11.055 -10.72 0 -13.068 0 -21.44a14.157 14.157 0 0 0 -6.7 -12.06h8.04A15.939 15.939 0 0 1 29.403 57.42" fill="none" stroke="" stroke-linecap="round" stroke-linejoin="round" stroke-width="1"></path><path d="M36.709 51.467h-22.968a1.214 1.214 0 0 1 -1.214 -1.214v-0.379a2.427 2.427 0 0 1 2.427 -2.427h21.946a2.427 2.427 0 0 1 2.427 2.427" fill="none" stroke="" stroke-linecap="round" stroke-linejoin="round" stroke-width="1"></path><path d="M54.803 65.544a5.162 5.162 0 0 0 -4.107 -7.245 3.948 3.948 0 0 0 -5.177 -3.477 3.034 3.034 0 0 0 -6.014 0 3.948 3.948 0 0 0 -5.177 3.477 5.16 5.16 0 0 0 -4.106 7.245" fill="none" stroke="" stroke-linecap="round" stroke-linejoin="round" stroke-width="1"></path><path d="M54.105 83.858A3.641 3.641 0 0 1 50.49 87.092H34.54a3.641 3.641 0 0 1 -3.618 -3.234L29.007 66.897a1.214 1.214 0 0 1 1.207 -1.35h24.597a1.214 1.214 0 0 1 1.206 1.35Z" fill="none" stroke="" stroke-linecap="round" stroke-linejoin="round" stroke-width="1"></path><path d="m39.782 65.547 0.607 21.545 -4.855 0 -1.518 -21.545 5.766 0z" fill="none" stroke="" stroke-linecap="round" stroke-linejoin="round" stroke-width="1"></path><path d="m45.244 65.547 -0.607 21.545 4.856 0 1.517 -21.545 -5.766 0z" fill="none" stroke="" stroke-linecap="round" stroke-linejoin="round" stroke-width="1"></path></svg>