<svg viewBox="-0.5 -0.5 100 100" xmlns="http://www.w3.org/2000/svg" height="100" width="100"><path d="M9.9 49.5a39.6 39.6 0 1 0 79.2 0 39.6 39.6 0 1 0 -79.2 0Z" fill="#d9edff" stroke-width="1"></path><path d="m49.5 16.61121 22.3344 7.7913a3.43728 3.43728 0 0 1 2.3057100000000004 3.24621v23.91741C74.14010999999999 68.18328 49.5 77.35167 49.5 77.35167s-24.64011 -9.168389999999999 -24.64011 -25.785539999999997V27.64872a3.43728 3.43728 0 0 1 2.3057100000000004 -3.24621Z" fill="#ffffff" stroke-width="1"></path><path d="m49.5 16.61121 22.3344 7.7913a3.43728 3.43728 0 0 1 2.3057100000000004 3.24621v23.91741C74.14010999999999 68.18328 49.5 77.35167 49.5 77.35167s-24.64011 -9.168389999999999 -24.64011 -25.785539999999997V27.64872a3.43728 3.43728 0 0 1 2.3057100000000004 -3.24621Z" fill="none" stroke="#020064" stroke-linecap="round" stroke-linejoin="round" stroke-width="1"></path><path d="M32.881859999999996 45.83601a16.61814 16.61814 0 1 0 33.23628 0 16.61814 16.61814 0 1 0 -33.23628 0Z" fill="#b0d9ff" stroke-width="1"></path><path d="M32.881859999999996 45.83601a16.61814 16.61814 0 1 0 33.23628 0 16.61814 16.61814 0 1 0 -33.23628 0Z" fill="none" stroke="#020064" stroke-linecap="round" stroke-linejoin="round" stroke-width="1"></path><path d="m42.05124 42.97095 14.89851 0 0 13.752089999999999 -14.89851 0Z" fill="#ffffff" stroke-width="1"></path><path d="M55.803329999999995 40.10589a6.30333 6.30333 0 1 0 -12.60666 0v2.86506h3.4382699999999997v-2.86506a2.86506 2.86506 0 1 1 5.73012 0v2.86506h3.4382699999999997Z" fill="#ffffff" stroke="#020064" stroke-linecap="round" stroke-linejoin="round" stroke-width="1"></path><path d="m42.05124 42.97095 14.89851 0 0 13.752089999999999 -14.89851 0Z" fill="none" stroke="#020064" stroke-linecap="round" stroke-linejoin="round" stroke-width="1"></path><path d="M51.21963 49.27428a1.71963 1.71963 0 1 0 -2.871 1.27215v1.59291a1.14642 1.14642 0 0 0 2.29284 0v-1.59291a1.70478 1.70478 0 0 0 0.57816 -1.27215Z" fill="#b0d9ff" stroke="#020064" stroke-linecap="round" stroke-linejoin="round" stroke-width="1"></path><path d="M35.747910000000005 83.54115a13.752089999999999 1.71864 0 1 0 27.504179999999998 0 13.752089999999999 1.71864 0 1 0 -27.504179999999998 0Z" fill="#b0d9ff" stroke-width="1"></path></svg>